<mxfile host="app.diagrams.net" modified="2023-07-22T17:02:04.715Z" agent="Mozilla/5.0 (Macintosh; Intel Mac OS X 10_15_7) AppleWebKit/605.1.15 (KHTML, like Gecko) Version/16.3 Safari/605.1.15" version="21.6.5" etag="Yu77we0G9z2Y2AMMbu-F" type="github">
  <diagram name="第 1 页" id="aa0tXRR-q9uDrZQQivy8">
    <mxGraphModel>
      <root>
        <mxCell id="0" />
        <mxCell id="1" parent="0" />
      </root>
    </mxGraphModel>
  </diagram>
</mxfile>
